<svg id="visual" viewBox="0 0 960 300" width="960" height="300" xmlns="http://www.w3.org/2000/svg" xmlns:xlink="http://www.w3.org/1999/xlink" version="1.1"><rect x="0" y="0" width="960" height="300" fill="#5cdb95"></rect><path d="M0 121L14.5 117.8C29 114.7 58 108.3 87.2 121.8C116.3 135.3 145.7 168.7 174.8 175.2C204 181.7 233 161.3 262 157.2C291 153 320 165 349 161C378 157 407 137 436.2 120.5C465.3 104 494.7 91 523.8 99.7C553 108.3 582 138.7 611 149.8C640 161 669 153 698 148.3C727 143.7 756 142.3 785.2 151.2C814.3 160 843.7 179 872.8 179.5C902 180 931 162 945.5 153L960 144L960 301L945.5 301C931 301 902 301 872.8 301C843.7 301 814.3 301 785.2 301C756 301 727 301 698 301C669 301 640 301 611 301C582 301 553 301 523.8 301C494.7 301 465.3 301 436.2 301C407 301 378 301 349 301C320 301 291 301 262 301C233 301 204 301 174.8 301C145.7 301 116.3 301 87.2 301C58 301 29 301 14.5 301L0 301Z" fill="#379683"></path><path d="M0 104L14.5 104.8C29 105.7 58 107.3 87.2 117.8C116.3 128.3 145.7 147.7 174.8 157C204 166.3 233 165.7 262 155.3C291 145 320 125 349 116.3C378 107.7 407 110.3 436.2 123.7C465.3 137 494.7 161 523.8 173.7C553 186.3 582 187.7 611 177.2C640 166.7 669 144.3 698 139.3C727 134.3 756 146.7 785.2 149.2C814.3 151.7 843.7 144.3 872.8 139.7C902 135 931 133 945.5 132L960 131L960 301L945.5 301C931 301 902 301 872.8 301C843.7 301 814.3 301 785.2 301C756 301 727 301 698 301C669 301 640 301 611 301C582 301 553 301 523.8 301C494.7 301 465.3 301 436.2 301C407 301 378 301 349 301C320 301 291 301 262 301C233 301 204 301 174.8 301C145.7 301 116.3 301 87.2 301C58 301 29 301 14.5 301L0 301Z" fill="#148a88"></path><path d="M0 201L14.5 199C29 197 58 193 87.2 183.3C116.3 173.7 145.7 158.3 174.8 161.8C204 165.3 233 187.7 262 200.8C291 214 320 218 349 216.5C378 215 407 208 436.2 204.2C465.3 200.3 494.7 199.7 523.8 199C553 198.3 582 197.7 611 193C640 188.3 669 179.7 698 184.8C727 190 756 209 785.2 206.5C814.3 204 843.7 180 872.8 172.3C902 164.7 931 173.3 945.5 177.7L960 182L960 301L945.5 301C931 301 902 301 872.8 301C843.7 301 814.3 301 785.2 301C756 301 727 301 698 301C669 301 640 301 611 301C582 301 553 301 523.8 301C494.7 301 465.3 301 436.2 301C407 301 378 301 349 301C320 301 291 301 262 301C233 301 204 301 174.8 301C145.7 301 116.3 301 87.2 301C58 301 29 301 14.5 301L0 301Z" fill="#007e8a"></path><path d="M0 160L14.5 161.8C29 163.7 58 167.3 87.2 165C116.3 162.7 145.7 154.3 174.8 150.8C204 147.3 233 148.7 262 161C291 173.3 320 196.7 349 196.2C378 195.7 407 171.3 436.2 172.3C465.3 173.3 494.7 199.7 523.8 215C553 230.3 582 234.7 611 233.2C640 231.7 669 224.3 698 214.5C727 204.7 756 192.3 785.2 188.2C814.3 184 843.7 188 872.8 189.7C902 191.3 931 190.7 945.5 190.3L960 190L960 301L945.5 301C931 301 902 301 872.8 301C843.7 301 814.3 301 785.2 301C756 301 727 301 698 301C669 301 640 301 611 301C582 301 553 301 523.8 301C494.7 301 465.3 301 436.2 301C407 301 378 301 349 301C320 301 291 301 262 301C233 301 204 301 174.8 301C145.7 301 116.3 301 87.2 301C58 301 29 301 14.5 301L0 301Z" fill="#007188"></path><path d="M0 228L14.5 219.2C29 210.3 58 192.7 87.2 195.2C116.3 197.7 145.7 220.3 174.8 232C204 243.7 233 244.3 262 244.3C291 244.3 320 243.7 349 239.8C378 236 407 229 436.2 226.3C465.3 223.7 494.7 225.3 523.8 222.3C553 219.3 582 211.7 611 210.2C640 208.7 669 213.3 698 217.5C727 221.7 756 225.3 785.2 227.5C814.3 229.7 843.7 230.3 872.8 222.3C902 214.3 931 197.7 945.5 189.3L960 181L960 301L945.5 301C931 301 902 301 872.8 301C843.7 301 814.3 301 785.2 301C756 301 727 301 698 301C669 301 640 301 611 301C582 301 553 301 523.8 301C494.7 301 465.3 301 436.2 301C407 301 378 301 349 301C320 301 291 301 262 301C233 301 204 301 174.8 301C145.7 301 116.3 301 87.2 301C58 301 29 301 14.5 301L0 301Z" fill="#006383"></path><path d="M0 232L14.5 235C29 238 58 244 87.2 239.8C116.3 235.7 145.7 221.3 174.8 214.8C204 208.3 233 209.7 262 210.8C291 212 320 213 349 219C378 225 407 236 436.2 238.7C465.3 241.3 494.7 235.7 523.8 237.3C553 239 582 248 611 252.8C640 257.7 669 258.3 698 253.5C727 248.7 756 238.3 785.2 229C814.3 219.7 843.7 211.3 872.8 209.5C902 207.7 931 212.3 945.5 214.7L960 217L960 301L945.5 301C931 301 902 301 872.8 301C843.7 301 814.3 301 785.2 301C756 301 727 301 698 301C669 301 640 301 611 301C582 301 553 301 523.8 301C494.7 301 465.3 301 436.2 301C407 301 378 301 349 301C320 301 291 301 262 301C233 301 204 301 174.8 301C145.7 301 116.3 301 87.2 301C58 301 29 301 14.5 301L0 301Z" fill="#00557d"></path><path d="M0 271L14.5 265.2C29 259.3 58 247.7 87.2 245.3C116.3 243 145.7 250 174.8 248.8C204 247.7 233 238.3 262 236.3C291 234.3 320 239.7 349 245.8C378 252 407 259 436.2 257C465.3 255 494.7 244 523.8 237.7C553 231.3 582 229.7 611 230.7C640 231.7 669 235.3 698 240.5C727 245.7 756 252.3 785.2 256.7C814.3 261 843.7 263 872.8 261C902 259 931 253 945.5 250L960 247L960 301L945.5 301C931 301 902 301 872.8 301C843.7 301 814.3 301 785.2 301C756 301 727 301 698 301C669 301 640 301 611 301C582 301 553 301 523.8 301C494.7 301 465.3 301 436.2 301C407 301 378 301 349 301C320 301 291 301 262 301C233 301 204 301 174.8 301C145.7 301 116.3 301 87.2 301C58 301 29 301 14.5 301L0 301Z" fill="#004775"></path><path d="M0 266L14.5 263.8C29 261.7 58 257.3 87.2 258.8C116.3 260.3 145.7 267.7 174.8 271.3C204 275 233 275 262 273C291 271 320 267 349 263C378 259 407 255 436.2 254.5C465.3 254 494.7 257 523.8 258.8C553 260.7 582 261.3 611 261.5C640 261.7 669 261.3 698 262C727 262.7 756 264.3 785.2 262.7C814.3 261 843.7 256 872.8 255.5C902 255 931 259 945.5 261L960 263L960 301L945.5 301C931 301 902 301 872.8 301C843.7 301 814.3 301 785.2 301C756 301 727 301 698 301C669 301 640 301 611 301C582 301 553 301 523.8 301C494.7 301 465.3 301 436.2 301C407 301 378 301 349 301C320 301 291 301 262 301C233 301 204 301 174.8 301C145.7 301 116.3 301 87.2 301C58 301 29 301 14.5 301L0 301Z" fill="#05386b"></path></svg>