<svg id="visual" viewBox="0 0 960 300" width="960" height="300" xmlns="http://www.w3.org/2000/svg" xmlns:xlink="http://www.w3.org/1999/xlink" version="1.1"><rect x="0" y="0" width="960" height="300" fill="#5cdb95"></rect><path d="M0 99L14.5 109.3C29 119.7 58 140.3 87.2 139.7C116.3 139 145.7 117 174.8 125.5C204 134 233 173 262 181.8C291 190.7 320 169.3 349 153.7C378 138 407 128 436.2 130C465.3 132 494.7 146 523.8 157.8C553 169.7 582 179.3 611 170.3C640 161.3 669 133.7 698 133.7C727 133.7 756 161.3 785.2 180.7C814.3 200 843.7 211 872.8 195.2C902 179.3 931 136.7 945.5 115.3L960 94L960 0L945.5 0C931 0 902 0 872.8 0C843.7 0 814.3 0 785.2 0C756 0 727 0 698 0C669 0 640 0 611 0C582 0 553 0 523.8 0C494.7 0 465.3 0 436.2 0C407 0 378 0 349 0C320 0 291 0 262 0C233 0 204 0 174.8 0C145.7 0 116.3 0 87.2 0C58 0 29 0 14.5 0L0 0Z" fill="#379683"></path><path d="M0 168L14.5 173.7C29 179.3 58 190.7 87.2 190.7C116.3 190.7 145.7 179.3 174.8 170.7C204 162 233 156 262 155C291 154 320 158 349 166.3C378 174.7 407 187.3 436.2 175.3C465.3 163.3 494.7 126.7 523.8 116.5C553 106.3 582 122.7 611 121.7C640 120.7 669 102.3 698 112C727 121.7 756 159.3 785.2 175.3C814.3 191.3 843.7 185.7 872.8 179C902 172.3 931 164.7 945.5 160.8L960 157L960 0L945.5 0C931 0 902 0 872.8 0C843.7 0 814.3 0 785.2 0C756 0 727 0 698 0C669 0 640 0 611 0C582 0 553 0 523.8 0C494.7 0 465.3 0 436.2 0C407 0 378 0 349 0C320 0 291 0 262 0C233 0 204 0 174.8 0C145.7 0 116.3 0 87.2 0C58 0 29 0 14.5 0L0 0Z" fill="#148a88"></path><path d="M0 86L14.5 95.3C29 104.7 58 123.3 87.2 128.8C116.3 134.3 145.7 126.7 174.8 123.8C204 121 233 123 262 117.5C291 112 320 99 349 105.2C378 111.3 407 136.7 436.2 150.3C465.3 164 494.7 166 523.8 150.7C553 135.3 582 102.7 611 89.8C640 77 669 84 698 89.3C727 94.7 756 98.3 785.2 105.2C814.3 112 843.7 122 872.8 122.5C902 123 931 114 945.5 109.5L960 105L960 0L945.5 0C931 0 902 0 872.8 0C843.7 0 814.3 0 785.2 0C756 0 727 0 698 0C669 0 640 0 611 0C582 0 553 0 523.8 0C494.7 0 465.3 0 436.2 0C407 0 378 0 349 0C320 0 291 0 262 0C233 0 204 0 174.8 0C145.7 0 116.3 0 87.2 0C58 0 29 0 14.5 0L0 0Z" fill="#007e8a"></path><path d="M0 87L14.5 94.8C29 102.7 58 118.3 87.2 126C116.3 133.7 145.7 133.3 174.8 123.5C204 113.7 233 94.3 262 89.2C291 84 320 93 349 92.7C378 92.3 407 82.7 436.2 90.8C465.3 99 494.7 125 523.8 134.3C553 143.7 582 136.3 611 123.8C640 111.3 669 93.7 698 86.5C727 79.3 756 82.7 785.2 88C814.3 93.3 843.7 100.7 872.8 102.5C902 104.3 931 100.7 945.5 98.8L960 97L960 0L945.5 0C931 0 902 0 872.8 0C843.7 0 814.3 0 785.2 0C756 0 727 0 698 0C669 0 640 0 611 0C582 0 553 0 523.8 0C494.7 0 465.3 0 436.2 0C407 0 378 0 349 0C320 0 291 0 262 0C233 0 204 0 174.8 0C145.7 0 116.3 0 87.2 0C58 0 29 0 14.5 0L0 0Z" fill="#007188"></path><path d="M0 103L14.5 105.8C29 108.7 58 114.3 87.2 115.8C116.3 117.3 145.7 114.7 174.8 105.7C204 96.7 233 81.3 262 75C291 68.7 320 71.3 349 78.7C378 86 407 98 436.2 106.2C465.3 114.3 494.7 118.7 523.8 110.2C553 101.7 582 80.3 611 76.7C640 73 669 87 698 96.3C727 105.7 756 110.3 785.2 108.7C814.3 107 843.7 99 872.8 89C902 79 931 67 945.5 61L960 55L960 0L945.5 0C931 0 902 0 872.8 0C843.7 0 814.3 0 785.2 0C756 0 727 0 698 0C669 0 640 0 611 0C582 0 553 0 523.8 0C494.7 0 465.3 0 436.2 0C407 0 378 0 349 0C320 0 291 0 262 0C233 0 204 0 174.8 0C145.7 0 116.3 0 87.2 0C58 0 29 0 14.5 0L0 0Z" fill="#006383"></path><path d="M0 56L14.5 54.7C29 53.3 58 50.7 87.2 57.5C116.3 64.3 145.7 80.7 174.8 81.8C204 83 233 69 262 69.2C291 69.3 320 83.7 349 87.5C378 91.3 407 84.7 436.2 75.5C465.3 66.3 494.7 54.7 523.8 54.8C553 55 582 67 611 73.3C640 79.7 669 80.3 698 83.2C727 86 756 91 785.2 92.2C814.3 93.3 843.7 90.7 872.8 85.8C902 81 931 74 945.5 70.5L960 67L960 0L945.5 0C931 0 902 0 872.8 0C843.7 0 814.3 0 785.2 0C756 0 727 0 698 0C669 0 640 0 611 0C582 0 553 0 523.8 0C494.7 0 465.3 0 436.2 0C407 0 378 0 349 0C320 0 291 0 262 0C233 0 204 0 174.8 0C145.7 0 116.3 0 87.2 0C58 0 29 0 14.5 0L0 0Z" fill="#00557d"></path><path d="M0 46L14.5 46.7C29 47.3 58 48.7 87.2 47.8C116.3 47 145.7 44 174.8 46.7C204 49.3 233 57.7 262 63.3C291 69 320 72 349 72.7C378 73.3 407 71.7 436.2 68.7C465.3 65.7 494.7 61.3 523.8 59C553 56.7 582 56.3 611 53C640 49.7 669 43.3 698 41C727 38.7 756 40.3 785.2 41.7C814.3 43 843.7 44 872.8 45.3C902 46.7 931 48.3 945.5 49.2L960 50L960 0L945.5 0C931 0 902 0 872.8 0C843.7 0 814.3 0 785.2 0C756 0 727 0 698 0C669 0 640 0 611 0C582 0 553 0 523.8 0C494.7 0 465.3 0 436.2 0C407 0 378 0 349 0C320 0 291 0 262 0C233 0 204 0 174.8 0C145.7 0 116.3 0 87.2 0C58 0 29 0 14.5 0L0 0Z" fill="#004775"></path><path d="M0 31L14.5 32.2C29 33.3 58 35.7 87.2 38.2C116.3 40.7 145.7 43.3 174.8 42.7C204 42 233 38 262 35.8C291 33.7 320 33.3 349 31.2C378 29 407 25 436.2 27.2C465.3 29.3 494.7 37.7 523.8 37.3C553 37 582 28 611 28.2C640 28.3 669 37.7 698 42.5C727 47.3 756 47.7 785.2 45.8C814.3 44 843.7 40 872.8 38.7C902 37.3 931 38.7 945.5 39.3L960 40L960 0L945.5 0C931 0 902 0 872.8 0C843.7 0 814.3 0 785.2 0C756 0 727 0 698 0C669 0 640 0 611 0C582 0 553 0 523.8 0C494.7 0 465.3 0 436.2 0C407 0 378 0 349 0C320 0 291 0 262 0C233 0 204 0 174.8 0C145.7 0 116.3 0 87.2 0C58 0 29 0 14.5 0L0 0Z" fill="#05386b"></path></svg>